<svg xmlns="http://www.w3.org/2000/svg" xmlns:svg="http://www.w3.org/2000/svg" id="svg3164" width="450.438" height="431.805" version="1.1"><metadata id="metadata3169"/><g id="layer1" transform="translate(-974.78125,-1153.5938)"><path id="path3918" fill="#1414c8" fill-opacity=".502" stroke="#000" stroke-dasharray="none" stroke-miterlimit="4" stroke-opacity=".556" stroke-width="1.6" d="m 350,167.36218 c 0,8.28427 -11.19288,15 -25,15 -13.80712,0 -25,-6.71573 -25,-15 0,-8.28427 11.19288,-15 25,-15 13.80712,0 25,6.71573 25,15 z" transform="translate(875,1031.8902)"/><path id="path3918-0" fill="#1414c8" fill-opacity=".502" stroke="#000" stroke-dasharray="none" stroke-miterlimit="4" stroke-opacity=".556" stroke-width="1.6" d="m 350,167.36218 c 0,8.28427 -11.19288,15 -25,15 -13.80712,0 -25,-6.71573 -25,-15 0,-8.28427 11.19288,-15 25,-15 13.80712,0 25,6.71573 25,15 z" transform="translate(975,1052.4426)"/><path id="path3918-6" fill="#1414c8" fill-opacity=".502" stroke="#000" stroke-dasharray="none" stroke-miterlimit="4" stroke-opacity=".556" stroke-width="1.6" d="m 350,167.36218 c 0,8.28427 -11.19288,15 -25,15 -13.80712,0 -25,-6.71573 -25,-15 0,-8.28427 11.19288,-15 25,-15 13.80712,0 25,6.71573 25,15 z" transform="translate(775,1051.3378)"/><path id="path3918-7" fill="#1414c8" fill-opacity=".502" stroke="#000" stroke-dasharray="none" stroke-miterlimit="4" stroke-opacity=".556" stroke-width="1.6" d="m 350,167.36218 c 0,8.28427 -11.19288,15 -25,15 -13.80712,0 -25,-6.71573 -25,-15 0,-8.28427 11.19288,-15 25,-15 13.80712,0 25,6.71573 25,15 z" transform="translate(732.79029,1132.2429)"/><path id="path3918-03" fill="#1414c8" fill-opacity=".502" stroke="#000" stroke-dasharray="none" stroke-miterlimit="4" stroke-opacity=".556" stroke-width="1.6" d="m 350,167.36218 c 0,8.28427 -11.19288,15 -25,15 -13.80712,0 -25,-6.71573 -25,-15 0,-8.28427 11.19288,-15 25,-15 13.80712,0 25,6.71573 25,15 z" transform="translate(1021.9779,1132.2429)"/><rect id="rect3959" width="110" height="50" x="1145" y="1384.605" fill="#1414c8" fill-opacity=".502" stroke="#000" stroke-dasharray="none" stroke-miterlimit="4" stroke-opacity=".556" stroke-width="1.6"/><path id="path3961" fill="none" stroke="#000" stroke-dasharray="none" stroke-linecap="butt" stroke-linejoin="miter" stroke-miterlimit="4" stroke-opacity="1" stroke-width="2" d="m 1233.4041,1384.605 97.9357,-73.2962"/><path id="path3965" fill="none" stroke="#000" stroke-dasharray="none" stroke-linecap="butt" stroke-linejoin="miter" stroke-miterlimit="4" stroke-opacity="1" stroke-width="2" d="m 1292.4625,1234.111 -79.2908,150.494"/><path id="path3967" fill="none" stroke="#000" stroke-dasharray="none" stroke-linecap="butt" stroke-linejoin="miter" stroke-miterlimit="4" stroke-opacity="1" stroke-width="2" d="m 1200,1214.2524 0,170.3526"/><path id="path3969" fill="none" stroke="#000" stroke-dasharray="none" stroke-linecap="butt" stroke-linejoin="miter" stroke-miterlimit="4" stroke-opacity="1" stroke-width="2" d="m 1107.4978,1233.0137 79.4067,151.5913"/><path id="path3971" fill="none" stroke="#000" stroke-dasharray="none" stroke-linecap="butt" stroke-linejoin="miter" stroke-miterlimit="4" stroke-opacity="1" stroke-width="2" d="m 1073.1138,1311.4579 94.5658,73.1471"/><text id="text4034" x="1342.119" y="1404.605" fill="#000" fill-opacity="1" stroke="none" font-family="Ubuntu" font-size="25" font-stretch="normal" font-style="normal" font-variant="normal" font-weight="normal" letter-spacing="0" text-anchor="middle" word-spacing="0" xml:space="preserve" style="text-align:center;line-height:125%;-inkscape-font-specification:Ubuntu"><tspan id="tspan4036" x="1345" y="1404.605">same </tspan><tspan id="tspan4038" x="1342.119" y="1435.855">network</tspan></text><text id="text4040" x="1155" y="1414.605" fill="#000" fill-opacity="1" stroke="none" font-family="Ubuntu" font-size="25" font-stretch="normal" font-style="normal" font-variant="normal" font-weight="normal" letter-spacing="0" word-spacing="0" xml:space="preserve" style="line-height:125%;-inkscape-font-specification:Ubuntu"><tspan id="tspan4042" x="1155" y="1414.605" font-size="20">scheduler</tspan></text><text id="text4044" x="1035" y="1302.948" fill="#000" fill-opacity="1" stroke="none" font-family="Ubuntu" font-size="25" font-stretch="normal" font-style="normal" font-variant="normal" font-weight="normal" letter-spacing="0" word-spacing="0" xml:space="preserve" style="line-height:125%;-inkscape-font-specification:Ubuntu"><tspan id="tspan4046" x="1035" y="1302.948" font-size="14">worker</tspan></text><text id="text4044-5" x="1077.502" y="1224.605" fill="#000" fill-opacity="1" stroke="none" font-family="Ubuntu" font-size="25" font-stretch="normal" font-style="normal" font-variant="normal" font-weight="normal" letter-spacing="0" word-spacing="0" xml:space="preserve" style="line-height:125%;-inkscape-font-specification:Ubuntu"><tspan id="tspan4046-7" x="1077.502" y="1224.605" font-size="14">worker</tspan></text><text id="text4044-6" x="1178.043" y="1204.605" fill="#000" fill-opacity="1" stroke="#000" stroke-opacity=".333" font-family="Ubuntu" font-size="25" font-stretch="normal" font-style="normal" font-variant="normal" font-weight="normal" letter-spacing="0" word-spacing="0" xml:space="preserve" style="line-height:125%;-inkscape-font-specification:Ubuntu"><tspan id="tspan4046-5" x="1178.043" y="1204.605" stroke="#000" stroke-opacity=".333" font-size="14">worker</tspan></text><text id="text4044-7" x="1279.69" y="1224.605" fill="#000" fill-opacity="1" stroke="none" font-family="Ubuntu" font-size="25" font-stretch="normal" font-style="normal" font-variant="normal" font-weight="normal" letter-spacing="0" word-spacing="0" xml:space="preserve" style="line-height:125%;-inkscape-font-specification:Ubuntu"><tspan id="tspan4046-3" x="1279.69" y="1224.605" font-size="14">worker</tspan></text><text id="text4044-0" x="1325" y="1304.958" fill="#000" fill-opacity="1" stroke="none" font-family="Ubuntu" font-size="25" font-stretch="normal" font-style="normal" font-variant="normal" font-weight="normal" letter-spacing="0" word-spacing="0" xml:space="preserve" style="line-height:125%;-inkscape-font-specification:Ubuntu"><tspan id="tspan4046-9" x="1325" y="1304.958" font-size="14">worker</tspan></text><path id="path4104" fill="#500" fill-opacity=".53" stroke="#000" stroke-dasharray="none" stroke-miterlimit="4" stroke-opacity=".556" stroke-width="1.6" d="m 350,427.36218 c 0,13.80712 -11.19288,25 -25,25 -13.80712,0 -25,-11.19288 -25,-25 0,-13.80712 11.19288,-25 25,-25 13.80712,0 25,11.19288 25,25 z" transform="translate(875,1132.2429)"/><text id="text4106" x="1179.35" y="1564.122" fill="#000" fill-opacity="1" stroke="none" font-family="Ubuntu" font-size="25" font-stretch="normal" font-style="normal" font-variant="normal" font-weight="normal" letter-spacing="0" word-spacing="0" xml:space="preserve" style="line-height:125%;-inkscape-font-specification:Ubuntu"><tspan id="tspan4108" x="1179.35" y="1564.122" font-size="16">client</tspan></text><path id="path4104-5" fill="#500" fill-opacity=".53" stroke="#000" stroke-dasharray="none" stroke-miterlimit="4" stroke-opacity=".556" stroke-width="1.6" d="m 350,427.36218 c 0,13.80712 -11.19288,25 -25,25 -13.80712,0 -25,-11.19288 -25,-25 0,-13.80712 11.19288,-25 25,-25 13.80712,0 25,11.19288 25,25 z" transform="translate(975,1132.2429)"/><text id="text4106-8" x="1279.35" y="1564.122" fill="#000" fill-opacity="1" stroke="none" font-family="Ubuntu" font-size="25" font-stretch="normal" font-style="normal" font-variant="normal" font-weight="normal" letter-spacing="0" word-spacing="0" xml:space="preserve" style="line-height:125%;-inkscape-font-specification:Ubuntu"><tspan id="tspan4108-9" x="1279.35" y="1564.122" font-size="16">client</tspan></text><path id="path4104-7" fill="#500" fill-opacity=".53" stroke="#000" stroke-dasharray="none" stroke-miterlimit="4" stroke-opacity=".556" stroke-width="1.6" d="m 350,427.36218 c 0,13.80712 -11.19288,25 -25,25 -13.80712,0 -25,-11.19288 -25,-25 0,-13.80712 11.19288,-25 25,-25 13.80712,0 25,11.19288 25,25 z" transform="translate(775,1132.2429)"/><text id="text4106-0" x="1079.35" y="1564.122" fill="#000" fill-opacity="1" stroke="none" font-family="Ubuntu" font-size="25" font-stretch="normal" font-style="normal" font-variant="normal" font-weight="normal" letter-spacing="0" word-spacing="0" xml:space="preserve" style="line-height:125%;-inkscape-font-specification:Ubuntu"><tspan id="tspan4108-4" x="1079.35" y="1564.122" font-size="16">client</tspan></text><path id="path4149" fill="none" stroke="#000" stroke-linecap="butt" stroke-linejoin="miter" stroke-opacity="1" stroke-width="1" d="m 1183.3333,1434.605 -69.4643,104.1966"/><path id="path4153" fill="none" stroke="#000" stroke-linecap="butt" stroke-linejoin="miter" stroke-opacity="1" stroke-width="1" d="M 1286.131,1538.8016 1216.6667,1434.605"/><path id="path4161" fill="none" stroke="#000" stroke-linecap="butt" stroke-linejoin="miter" stroke-opacity="1" stroke-width="1" d="m 1200,1534.6051 0,-100.0001"/><path id="path4163" fill="none" stroke="#000" stroke-linecap="butt" stroke-linejoin="miter" stroke-opacity=".333" stroke-width="1" d="m 1123.7884,1214.0737 52.4232,-10.1951"/><path id="path4165" fill="none" stroke="#000" stroke-linecap="butt" stroke-linejoin="miter" stroke-opacity=".333" stroke-width="1" d="m 1092.5296,1233.0188 -27.2689,52.2674"/><path id="path4167" fill="none" stroke="#000" stroke-linecap="butt" stroke-linejoin="miter" stroke-opacity=".319" stroke-width="1" d="m 1073.9847,1288.1772 109.8209,-77.497"/><path id="path4186" fill="none" stroke="#000" stroke-linecap="butt" stroke-linejoin="miter" stroke-opacity=".333" stroke-width="1" d="m 1223.6574,1204.1145 52.6852,10.8281"/><path id="path4188" fill="none" stroke="#000" stroke-linecap="butt" stroke-linejoin="miter" stroke-opacity=".333" stroke-width="1" d="m 1308.3285,1233.9523 30.3209,51.5053"/><path id="path4192" fill="none" stroke="#000" stroke-linecap="butt" stroke-linejoin="miter" stroke-opacity=".319" stroke-width="1" d="m 1216.5029,1210.5201 113.9721,77.8173"/><path id="path4194" fill="none" stroke="#000" stroke-linecap="butt" stroke-linejoin="miter" stroke-opacity=".333" stroke-width="1" d="m 1325.0311,1292.4157 -203.0843,-66.5264"/><path id="path4196" fill="none" stroke="#000" stroke-linecap="butt" stroke-linejoin="miter" stroke-opacity=".333" stroke-width="1" d="m 1079.708,1292.3839 198.3743,-65.3579"/><rect id="rect4202" width="448.543" height="300.105" x="975.729" y="1154.552" fill="#1919b6" fill-opacity=".114" stroke="#000" stroke-dasharray="none" stroke-miterlimit="4" stroke-opacity=".319" stroke-width="1.895"/></g></svg>