<svg xmlns="http://www.w3.org/2000/svg" xmlns:svg="http://www.w3.org/2000/svg" id="svg2" width="333.803" height="385.03" version="1.1"><metadata id="metadata7"/><g id="layer1" transform="translate(-646.99034,-33.219463)"><flowRoot id="flowRoot4048" fill="#000" fill-opacity="1" stroke="none" font-family="Ubuntu" font-size="25" font-stretch="normal" font-style="normal" font-variant="normal" font-weight="normal" letter-spacing="0" word-spacing="0" xml:space="preserve" style="line-height:125%;-inkscape-font-specification:Ubuntu"><flowRegion id="flowRegion4050"><rect id="rect4052" width="135.897" height="85.626" x="-8.286" y="109.369"/></flowRegion><flowPara id="flowPara4054"/></flowRoot><path id="path3918-7-1-1-8" fill="#1414c8" fill-opacity=".502" stroke="#000" stroke-dasharray="none" stroke-miterlimit="4" stroke-opacity=".556" stroke-width="1.6" d="m 350,167.36218 c 0,8.28427 -11.19288,15 -25,15 -13.80712,0 -25,-6.71573 -25,-15 0,-8.28427 11.19288,-15 25,-15 13.80712,0 25,6.71573 25,15 z" transform="translate(347.79034,-118.34272)"/><path id="path3918-7-1-4-4" fill="#1414c8" fill-opacity=".502" stroke="#000" stroke-dasharray="none" stroke-miterlimit="4" stroke-opacity=".556" stroke-width="1.6" d="m 350,167.36218 c 0,8.28427 -11.19288,15 -25,15 -13.80712,0 -25,-6.71573 -25,-15 0,-8.28427 11.19288,-15 25,-15 13.80712,0 25,6.71573 25,15 z" transform="translate(497.79036,-118.34272)"/><text id="text4044-66-7-6" x="899.826" y="92.362" fill="#000" fill-opacity="1" stroke="none" font-family="Ubuntu" font-size="25" font-stretch="normal" font-style="normal" font-variant="normal" font-weight="normal" letter-spacing="0" word-spacing="0" xml:space="preserve" style="line-height:125%;-inkscape-font-specification:Ubuntu"><tspan id="tspan4046-79-8-0" x="899.826" y="92.362" font-size="14">worker</tspan></text><path id="path3918-7-1-11-4" fill="#1414c8" fill-opacity=".502" stroke="#000" stroke-dasharray="none" stroke-miterlimit="4" stroke-opacity=".556" stroke-width="1.6" d="m 350,167.36218 c 0,8.28427 -11.19288,15 -25,15 -13.80712,0 -25,-6.71573 -25,-15 0,-8.28427 11.19288,-15 25,-15 13.80712,0 25,6.71573 25,15 z" transform="translate(427.79032,11.65731)"/><path id="path3923-4-2-5-5" fill="#500" fill-opacity=".512" stroke="#00000d" stroke-dasharray="none" stroke-miterlimit="4" stroke-opacity=".828" stroke-width="1" d="m -173.30595,26.56071 -6.98259,10.328733 -5.45365,11.211465 -5.45365,-11.211465 -6.98259,-10.328733 12.43624,0.882732 z" transform="matrix(0.91409898,-0.40549114,0.40549114,0.91409898,930.16823,57.1933)"/><path id="path3923-4-2-0-3" fill="#500" fill-opacity=".512" stroke="#00000d" stroke-dasharray="none" stroke-miterlimit="4" stroke-opacity=".828" stroke-width="1" d="m -173.30595,26.56071 -6.98259,10.328733 -5.45365,11.211465 -5.45365,-11.211465 -6.98259,-10.328733 12.43624,0.882732 z" transform="matrix(0.90556939,0.42419817,-0.42419817,0.90556939,914.30479,211.21948)"/><path id="path3923-4-2-6-1" fill="#500" fill-opacity=".512" stroke="#00000d" stroke-dasharray="none" stroke-miterlimit="4" stroke-opacity=".828" stroke-width="1" d="m -173.30595,26.56071 -6.98259,10.328733 -5.45365,11.211465 -5.45365,-11.211465 -6.98259,-10.328733 12.43624,0.882732 z" transform="translate(1008.9107,36.91939)"/><path id="path3923-4-2-2-8" fill="#500" fill-opacity=".512" stroke="#00000d" stroke-dasharray="none" stroke-miterlimit="4" stroke-opacity=".828" stroke-width="1" d="m -173.30595,26.56071 -6.98259,10.328733 -5.45365,11.211465 -5.45365,-11.211465 -6.98259,-10.328733 12.43624,0.882732 z" transform="translate(858.11182,36.08601)"/><path id="path3923-4-2-7-7" fill="#500" fill-opacity=".512" stroke="#00000d" stroke-dasharray="none" stroke-miterlimit="4" stroke-opacity=".828" stroke-width="1" d="m -173.30595,26.56071 -6.98259,10.328733 -5.45365,11.211465 -5.45365,-11.211465 -6.98259,-10.328733 12.43624,0.882732 z" transform="matrix(0.8660254,0.5,-0.5,0.8660254,882.25513,111.79252)"/><path id="path3923-4-2-71-4" fill="#500" fill-opacity=".512" stroke="#00000d" stroke-dasharray="none" stroke-miterlimit="4" stroke-opacity=".828" stroke-width="1" d="m -173.30595,26.56071 -6.98259,10.328733 -5.45365,11.211465 -5.45365,-11.211465 -6.98259,-10.328733 12.43624,0.882732 z" transform="matrix(0.8660254,-0.5,0.5,0.8660254,936.3567,-73.583537)"/><rect id="rect4118-01" width="20" height="10" x="690" y="62.362" fill="#500" fill-opacity=".512" stroke="#00000d" stroke-dasharray="none" stroke-miterlimit="4" stroke-opacity=".828" stroke-width="1"/><rect id="rect4118-7-8" width="20" height="10" x="790" y="62.362" fill="#500" fill-opacity=".512" stroke="#00000d" stroke-dasharray="none" stroke-miterlimit="4" stroke-opacity=".828" stroke-width="1"/><rect id="rect4118-0-4" width="20" height="10" x="740" y="152.362" fill="#500" fill-opacity=".512" stroke="#00000d" stroke-dasharray="none" stroke-miterlimit="4" stroke-opacity=".828" stroke-width="1"/><path id="path4150" fill="none" stroke="#000" stroke-linecap="butt" stroke-linejoin="miter" stroke-opacity="1" stroke-width="1" d="m 701.80999,72.362183 30.25518,83.581007"/><path id="path4154" fill="none" stroke="#000" stroke-linecap="butt" stroke-linejoin="miter" stroke-opacity="1" stroke-width="1" d="M 710.00006,65.238466 781.2826,50.100076"/><path id="path4156" fill="none" stroke="#000" stroke-linecap="butt" stroke-linejoin="miter" stroke-opacity="1" stroke-width="1" d="m 800.00006,67.362183 0,0"/><path id="path4158" fill="none" stroke="#000" stroke-linecap="butt" stroke-linejoin="miter" stroke-opacity="1" stroke-width="1" d="M 790.00006,65.270344 715.64868,49.717234"/><path id="path4160" fill="none" stroke="#000" stroke-linecap="butt" stroke-linejoin="miter" stroke-opacity="1" stroke-width="1" d="M 819.79407,78.083222 754.40186,152.3622"/><path id="path4162" fill="none" stroke="#000" stroke-linecap="butt" stroke-linejoin="miter" stroke-opacity="1" stroke-width="1" d="M 675.80275,77.129209 745.3762,152.3622"/><path id="path4164" fill="none" stroke="#000" stroke-linecap="butt" stroke-linejoin="miter" stroke-opacity="1" stroke-width="1" d="M 773.3931,156.5954 798.50919,72.362183"/><rect id="rect4118-3" width="20" height="10" x="869.826" y="102.362" fill="#500" fill-opacity=".512" stroke="#00000d" stroke-dasharray="none" stroke-miterlimit="4" stroke-opacity=".828" stroke-width="1"/><path id="path3923-4-2-7-3" fill="#500" fill-opacity=".512" stroke="#00000d" stroke-dasharray="none" stroke-miterlimit="4" stroke-opacity=".828" stroke-width="1" d="m -173.30595,26.56071 -6.98259,10.328733 -5.45365,11.211465 -5.45365,-11.211465 -6.98259,-10.328733 12.43624,0.882732 z" transform="matrix(0.8660254,0.5,-0.5,0.8660254,1055.6438,195.79616)"/><text id="text4202" x="901.409" y="111.944" fill="#000" fill-opacity="1" stroke="none" font-family="Ubuntu" font-size="16" font-stretch="normal" font-style="normal" font-variant="normal" font-weight="normal" letter-spacing="0" word-spacing="0" xml:space="preserve" style="line-height:125%;-inkscape-font-specification:Ubuntu"><tspan id="tspan4204" x="901.409" y="111.944">router</tspan></text><text id="text4206" x="900" y="141.194" fill="#000" fill-opacity="1" stroke="none" font-family="Ubuntu" font-size="16" font-stretch="normal" font-style="normal" font-variant="normal" font-weight="normal" letter-spacing="0" word-spacing="0" xml:space="preserve" style="line-height:125%;-inkscape-font-specification:Ubuntu"><tspan id="tspan4208" x="900" y="141.194">dealer</tspan></text><flowRoot id="flowRoot4210" fill="#000" fill-opacity="1" stroke="none" font-family="Ubuntu" font-size="16" font-stretch="normal" font-style="normal" font-variant="normal" font-weight="normal" letter-spacing="0" transform="translate(1190.1563,-269.30492)" word-spacing="0" xml:space="preserve" style="line-height:125%;-inkscape-font-specification:Ubuntu"><flowRegion id="flowRegion4212"><rect id="rect4214" width="220.369" height="91.512" x="-400.151" y="419.488"/></flowRegion><flowPara id="flowPara4216" font-size="12">every worker has:</flowPara><flowPara id="flowPara4218" font-size="12">: one router</flowPara><flowPara id="flowPara4220" font-size="12">: a dealer for every other</flowPara><flowPara id="flowPara4222" font-size="12">worker to which it has spoken</flowPara></flowRoot><path id="path3918-7-1-4-2" fill="#1414c8" fill-opacity=".502" stroke="#000" stroke-dasharray="none" stroke-miterlimit="4" stroke-opacity=".556" stroke-width="1.6" d="m 350,167.36218 c 0,8.28427 -11.19288,15 -25,15 -13.80712,0 -25,-6.71573 -25,-15 0,-8.28427 11.19288,-15 25,-15 13.80712,0 25,6.71573 25,15 z" transform="matrix(0.49320971,0,0,0.49320971,719.75391,4.873346)"/><path id="path3918-7-7-8" fill="#1414c8" fill-opacity=".502" stroke="#000" stroke-dasharray="none" stroke-miterlimit="4" stroke-opacity=".556" stroke-width="1.6" d="m 350,167.36218 c 0,8.28427 -11.19288,15 -25,15 -13.80712,0 -25,-6.71573 -25,-15 0,-8.28427 11.19288,-15 25,-15 13.80712,0 25,6.71573 25,15 z" transform="translate(494.80403,86.74426)"/><path id="path3918-7-1-0" fill="#1414c8" fill-opacity=".502" stroke="#000" stroke-dasharray="none" stroke-miterlimit="4" stroke-opacity=".556" stroke-width="1.6" d="m 350,167.36218 c 0,8.28427 -11.19288,15 -25,15 -13.80712,0 -25,-6.71573 -25,-15 0,-8.28427 11.19288,-15 25,-15 13.80712,0 25,6.71573 25,15 z" transform="translate(362.8684,86.74426)"/><rect id="rect3959-5-4" width="110" height="50" x="697.014" y="367.449" fill="#1414c8" fill-opacity=".502" stroke="#000" stroke-dasharray="none" stroke-miterlimit="4" stroke-opacity=".556" stroke-width="1.6"/><rect id="rect3104-0" width="70" height="20" x="717.014" y="347.449" fill="#500" fill-opacity=".512" stroke="#00000d" stroke-dasharray="none" stroke-miterlimit="4" stroke-opacity=".828" stroke-width="1"/><path id="path3923-0" fill="#500" fill-opacity=".512" stroke="#00000d" stroke-dasharray="none" stroke-miterlimit="4" stroke-opacity=".828" stroke-width="1" d="m -173.30595,26.56071 -6.98259,10.328733 -5.45365,11.211465 -5.45365,-11.211465 -6.98259,-10.328733 12.43624,0.882732 z" transform="translate(1004.8809,241.57827)"/><path id="path3923-4-4" fill="#500" fill-opacity=".512" stroke="#00000d" stroke-dasharray="none" stroke-miterlimit="4" stroke-opacity=".828" stroke-width="1" d="m -173.30595,26.56071 -6.98259,10.328733 -5.45365,11.211465 -5.45365,-11.211465 -6.98259,-10.328733 12.43624,0.882732 z" transform="translate(873.33555,241.85958)"/><path id="path3966-6" fill="none" stroke="#000" stroke-linecap="butt" stroke-linejoin="miter" stroke-opacity="1" stroke-width="1" d="m 690.88638,283.19079 52.89564,64.25837"/><path id="path3968-5" fill="none" stroke="#000" stroke-linecap="butt" stroke-linejoin="miter" stroke-opacity="1" stroke-width="1" d="m 752.01373,357.44916 0,0"/><path id="path3970-2" fill="none" stroke="#000" stroke-linecap="butt" stroke-linejoin="miter" stroke-opacity="1" stroke-width="1" d="m 815.80001,282.81556 -55.23969,64.6336"/><text id="text4044-66-7-4" x="900" y="292.362" fill="#000" fill-opacity="1" stroke="none" font-family="Ubuntu" font-size="25" font-stretch="normal" font-style="normal" font-variant="normal" font-weight="normal" letter-spacing="0" word-spacing="0" xml:space="preserve" style="line-height:125%;-inkscape-font-specification:Ubuntu"><tspan id="tspan4046-79-8-3" x="900" y="292.362" font-size="14">worker</tspan></text><rect id="rect4118-3-2" width="20" height="10" x="870" y="302.362" fill="#500" fill-opacity=".512" stroke="#00000d" stroke-dasharray="none" stroke-miterlimit="4" stroke-opacity=".828" stroke-width="1"/><path id="path3923-4-2-7-3-5" fill="#500" fill-opacity=".512" stroke="#00000d" stroke-dasharray="none" stroke-miterlimit="4" stroke-opacity=".828" stroke-width="1" d="m -173.30595,26.56071 -6.98259,10.328733 -5.45365,11.211465 -5.45365,-11.211465 -6.98259,-10.328733 12.43624,0.882732 z" transform="matrix(0.8660254,0.5,-0.5,0.8660254,1055.8183,395.79616)"/><text id="text4202-0" x="901.583" y="311.944" fill="#000" fill-opacity="1" stroke="none" font-family="Ubuntu" font-size="16" font-stretch="normal" font-style="normal" font-variant="normal" font-weight="normal" letter-spacing="0" word-spacing="0" xml:space="preserve" style="line-height:125%;-inkscape-font-specification:Ubuntu"><tspan id="tspan4204-9" x="901.583" y="311.944">router</tspan></text><text id="text4206-1" x="900.175" y="341.194" fill="#000" fill-opacity="1" stroke="none" font-family="Ubuntu" font-size="16" font-stretch="normal" font-style="normal" font-variant="normal" font-weight="normal" letter-spacing="0" word-spacing="0" xml:space="preserve" style="line-height:125%;-inkscape-font-specification:Ubuntu"><tspan id="tspan4208-9" x="900.175" y="341.194">dealer</tspan></text><path id="path3918-7-1-4-2-8" fill="#1414c8" fill-opacity=".502" stroke="#000" stroke-dasharray="none" stroke-miterlimit="4" stroke-opacity=".556" stroke-width="1.6" d="m 350,167.36218 c 0,8.28427 -11.19288,15 -25,15 -13.80712,0 -25,-6.71573 -25,-15 0,-8.28427 11.19288,-15 25,-15 13.80712,0 25,6.71573 25,15 z" transform="matrix(0.49320971,0,0,0.49320971,719.92839,204.87335)"/><flowRoot id="flowRoot4210-4" fill="#000" fill-opacity="1" stroke="none" font-family="Ubuntu" font-size="16" font-stretch="normal" font-style="normal" font-variant="normal" font-weight="normal" letter-spacing="0" transform="translate(1220.1563,-59.304922)" word-spacing="0" xml:space="preserve" style="line-height:125%;-inkscape-font-specification:Ubuntu"><flowRegion id="flowRegion4212-5"><rect id="rect4214-6" width="169.994" height="52.179" x="-400.151" y="419.488"/></flowRegion><flowPara id="flowPara4216-7" font-size="12">The scheduler has one router</flowPara><flowPara id="flowPara4222-0" font-size="12">to which each worker&apos;s dealer</flowPara><flowPara id="flowPara4390" font-size="12">connects</flowPara></flowRoot><rect id="rect3959-5-1" width="28.266" height="12.848" x="866.085" y="258.507" fill="#1414c8" fill-opacity=".502" stroke="#000" stroke-dasharray="none" stroke-miterlimit="4" stroke-opacity=".556" stroke-width=".411"/><text id="text4044-66-7-4-4" x="900" y="272.362" fill="#000" fill-opacity="1" stroke="none" font-family="Ubuntu" font-size="25" font-stretch="normal" font-style="normal" font-variant="normal" font-weight="normal" letter-spacing="0" word-spacing="0" xml:space="preserve" style="line-height:125%;-inkscape-font-specification:Ubuntu"><tspan id="tspan4046-79-8-3-0" x="900" y="272.362" font-size="14">scheduler</tspan></text></g></svg>