<svg xmlns="http://www.w3.org/2000/svg" xmlns:svg="http://www.w3.org/2000/svg" id="svg3063" width="297.25" height="385.725" version="1.1"><defs id="defs3065"><marker id="Arrow1Mend" orient="auto" overflow="visible" refX="0" refY="0"><path id="path4039" fill-rule="evenodd" stroke="#000" stroke-width="1pt" d="M 0,0 5,-5 -12.5,0 5,5 0,0 z" transform="matrix(-0.4,0,0,-0.4,-4,0)"/></marker><marker id="Arrow1Mend-0" orient="auto" overflow="visible" refX="0" refY="0"><path id="path4039-9" fill-rule="evenodd" stroke="#000" stroke-width="1pt" d="M 0,0 5,-5 -12.5,0 5,5 0,0 z" transform="matrix(-0.4,0,0,-0.4,-4,0)"/></marker><marker id="Arrow1Mend-3" orient="auto" overflow="visible" refX="0" refY="0"><path id="path4039-8" fill-rule="evenodd" stroke="#000" stroke-width="1pt" d="M 0,0 5,-5 -12.5,0 5,5 0,0 z" transform="matrix(-0.4,0,0,-0.4,-4,0)"/></marker><marker id="Arrow1Mend-8" orient="auto" overflow="visible" refX="0" refY="0"><path id="path4039-5" fill-rule="evenodd" stroke="#000" stroke-width="1pt" d="M 0,0 5,-5 -12.5,0 5,5 0,0 z" transform="matrix(-0.4,0,0,-0.4,-4,0)"/></marker></defs><metadata id="metadata3068"/><g id="layer1" transform="translate(-69,-460.72218)"><rect id="rect3103" width="80" height="80" x="70" y="482.362" fill="#00f" fill-opacity=".502" stroke="#000" stroke-dasharray="none" stroke-dashoffset="0" stroke-linecap="round" stroke-miterlimit="4" stroke-opacity="1" stroke-width="2" opacity=".6"/><rect id="rect3109" width="80" height="40" x="70" y="582.362" fill="#00f" fill-opacity=".502" stroke="#000" stroke-dasharray="none" stroke-dashoffset="0" stroke-linecap="round" stroke-miterlimit="4" stroke-opacity="1" stroke-width="2" opacity=".6"/><rect id="rect3111" width="80" height="80" x="70" y="642.362" fill="#00f" fill-opacity=".502" stroke="#000" stroke-dasharray="none" stroke-dashoffset="0" stroke-linecap="round" stroke-miterlimit="4" stroke-opacity="1" stroke-width="2" opacity=".6"/><rect id="rect3113" width="80" height="60" x="70" y="742.362" fill="#00f" fill-opacity=".502" stroke="#000" stroke-dasharray="none" stroke-dashoffset="0" stroke-linecap="round" stroke-miterlimit="4" stroke-opacity="1" stroke-width="2" opacity=".6"/><path id="path3919" fill="none" stroke="#000" stroke-dasharray="none" stroke-linecap="butt" stroke-linejoin="miter" stroke-miterlimit="4" stroke-opacity="1" stroke-width="2.5" d="m 251.54112,482.36218 c 0,320 0,320 0,320"/><path id="path3919-4" fill="none" stroke="#000" stroke-dasharray="none" stroke-linecap="butt" stroke-linejoin="miter" stroke-miterlimit="4" stroke-opacity="1" stroke-width="2.5" d="m 255.46969,482.36218 c 0,320 0,320 0,320"/><path id="path4853" fill="none" stroke="#000" stroke-linecap="butt" stroke-linejoin="miter" stroke-opacity=".566" stroke-width="1" d="m 150,482.36218 c 100,0 100,0 100,0"/><path id="path4855" fill="none" stroke="#000" stroke-linecap="butt" stroke-linejoin="miter" stroke-opacity=".566" stroke-width="1" d="m 150,562.36218 c 100,5 100,5 100,5"/><path id="path4857" fill="none" stroke="#000" stroke-linecap="butt" stroke-linejoin="miter" stroke-opacity=".566" stroke-width="1" d="m 150,582.36218 c 100,-100 100,-100 100,-100"/><path id="path4859" fill="none" stroke="#000" stroke-linecap="butt" stroke-linejoin="miter" stroke-opacity=".566" stroke-width="1" d="m 150,622.36218 c 100,-55 100,-55 100,-55"/><path id="path4861" fill="none" stroke="#000" stroke-linecap="butt" stroke-linejoin="miter" stroke-opacity=".566" stroke-width="1" d="m 150,642.36218 c 100,-160 100,-160 100,-160"/><path id="path4863" fill="none" stroke="#000" stroke-linecap="butt" stroke-linejoin="miter" stroke-opacity=".566" stroke-width="1" d="m 150,722.36218 c 100,-155 100,-155 100,-155"/><path id="path4865" fill="none" stroke="#000" stroke-linecap="butt" stroke-linejoin="miter" stroke-opacity=".566" stroke-width="1" d="m 150,742.36218 c 100,-260 100,-260 100,-260"/><path id="path4867" fill="none" stroke="#000" stroke-linecap="butt" stroke-linejoin="miter" stroke-opacity=".566" stroke-width="1" d="m 150,802.36218 c 100,-235 100,-235 100,-235"/><path id="path4869" fill="none" stroke="#000" stroke-linecap="butt" stroke-linejoin="miter" stroke-opacity=".566" stroke-width="1" d="m 150,482.36218 c 100,95 100,95 100,95"/><path id="path4875" fill="none" stroke="#000" stroke-linecap="butt" stroke-linejoin="miter" stroke-opacity=".566" stroke-width="1" d="m 150,562.36218 c 100,140 100,140 100,140"/><path id="path4877" fill="none" stroke="#000" stroke-linecap="butt" stroke-linejoin="miter" stroke-opacity=".566" stroke-width="1" d="m 150,582.36218 c 100,-5 100,-5 100,-5"/><path id="path4879" fill="none" stroke="#000" stroke-linecap="butt" stroke-linejoin="miter" stroke-opacity=".566" stroke-width="1" d="m 150,642.36218 c 100,-65 100,-65 100,-65"/><path id="path4881" fill="none" stroke="#000" stroke-linecap="butt" stroke-linejoin="miter" stroke-opacity=".566" stroke-width="1" d="m 150,742.36218 c 100,-165 100,-165 100,-165"/><path id="path4883" fill="none" stroke="#000" stroke-linecap="butt" stroke-linejoin="miter" stroke-opacity=".566" stroke-width="1" d="m 150,622.36218 c 100,80 100,80 100,80"/><path id="path4885" fill="none" stroke="#000" stroke-linecap="butt" stroke-linejoin="miter" stroke-opacity=".566" stroke-width="1" d="m 150,722.36218 c 100,-20 100,-20 100,-20"/><path id="path4887" fill="none" stroke="#000" stroke-linecap="butt" stroke-linejoin="miter" stroke-opacity=".566" stroke-width="1" d="m 150,802.36218 c 100,-100 100,-100 100,-100"/><path id="path4889" fill="none" stroke="#000" stroke-linecap="butt" stroke-linejoin="miter" stroke-opacity=".566" stroke-width="1" d="m 150,482.36218 c 100,240 100,240 100,240"/><path id="path4891" fill="none" stroke="#000" stroke-linecap="butt" stroke-linejoin="miter" stroke-opacity=".566" stroke-width="1" d="m 150,562.36218 c 100,240 100,240 100,240"/><path id="path4893" fill="none" stroke="#000" stroke-linecap="butt" stroke-linejoin="miter" stroke-opacity=".566" stroke-width="1" d="m 150,582.36218 c 100,140 100,140 100,140"/><path id="path4895" fill="none" stroke="#000" stroke-linecap="butt" stroke-linejoin="miter" stroke-opacity=".566" stroke-width="1" d="m 150,642.36218 c 100,80 100,80 100,80"/><path id="path4897" fill="none" stroke="#000" stroke-linecap="butt" stroke-linejoin="miter" stroke-opacity=".566" stroke-width="1" d="m 150,742.36218 c 100,-20 100,-20 100,-20"/><path id="path4899" fill="none" stroke="#000" stroke-linecap="butt" stroke-linejoin="miter" stroke-opacity=".566" stroke-width="1" d="m 150,622.36218 c 100,180 100,180 100,180"/><path id="path4901" fill="none" stroke="#000" stroke-linecap="butt" stroke-linejoin="miter" stroke-opacity=".566" stroke-width="1" d="m 150,722.36218 c 100,80 100,80 100,80"/><path id="path4903" fill="none" stroke="#000" stroke-linecap="butt" stroke-linejoin="miter" stroke-opacity=".566" stroke-width="1" d="m 150,802.36218 c 100,0 100,0 100,0"/><rect id="rect4905" width="95" height="20" x="270" y="482.362" fill="#00f" fill-opacity=".502" stroke="#000" stroke-dasharray="none" stroke-dashoffset="0" stroke-linecap="round" stroke-miterlimit="4" stroke-opacity="1" stroke-width="2.5" opacity=".6"/><rect id="rect4907" width="95" height="15" x="270" y="502.362" fill="#00f" fill-opacity=".502" stroke="#000" stroke-dasharray="none" stroke-dashoffset="0" stroke-linecap="round" stroke-miterlimit="4" stroke-opacity="1" stroke-width="2.5" opacity=".6"/><rect id="rect4909" width="95" height="25" x="270" y="517.362" fill="#00f" fill-opacity=".502" stroke="#000" stroke-dasharray="none" stroke-dashoffset="0" stroke-linecap="round" stroke-miterlimit="4" stroke-opacity="1" stroke-width="2.5" opacity=".6"/><rect id="rect4911" width="95.12" height="22.62" x="269.94" y="542.302" fill="#00f" fill-opacity=".502" stroke="#000" stroke-dasharray="none" stroke-dashoffset="0" stroke-linecap="round" stroke-miterlimit="4" stroke-opacity="1" stroke-width="2.38" opacity=".6"/><rect id="rect4913" width="95" height="35" x="270" y="577.362" fill="#00f" fill-opacity=".502" stroke="#000" stroke-dasharray="none" stroke-dashoffset="0" stroke-linecap="round" stroke-miterlimit="4" stroke-opacity="1" stroke-width="2.5" opacity=".6"/><rect id="rect4915" width="95" height="35" x="270" y="612.362" fill="#00f" fill-opacity=".502" stroke="#000" stroke-dasharray="none" stroke-dashoffset="0" stroke-linecap="round" stroke-miterlimit="4" stroke-opacity="1" stroke-width="2.5" opacity=".6"/><rect id="rect4917" width="95" height="25" x="270" y="647.362" fill="#00f" fill-opacity=".502" stroke="#000" stroke-dasharray="none" stroke-dashoffset="0" stroke-linecap="round" stroke-miterlimit="4" stroke-opacity="1" stroke-width="2.5" opacity=".6"/><rect id="rect4919" width="94.837" height="34.087" x="270.081" y="672.443" fill="#00f" fill-opacity=".502" stroke="#000" stroke-dasharray="none" stroke-dashoffset="0" stroke-linecap="round" stroke-miterlimit="4" stroke-opacity="1" stroke-width="2.663" opacity=".6"/><rect id="rect4921" width="95" height="15" x="270" y="722.362" fill="#00f" fill-opacity=".502" stroke="#000" stroke-dasharray="none" stroke-dashoffset="0" stroke-linecap="round" stroke-miterlimit="4" stroke-opacity="1" stroke-width="2.5" opacity=".6"/><rect id="rect4923" width="95" height="20" x="270" y="737.362" fill="#00f" fill-opacity=".502" stroke="#000" stroke-dasharray="none" stroke-dashoffset="0" stroke-linecap="round" stroke-miterlimit="4" stroke-opacity="1" stroke-width="2.5" opacity=".6"/><rect id="rect4925" width="95" height="35" x="270" y="757.362" fill="#00f" fill-opacity=".502" stroke="#000" stroke-dasharray="none" stroke-dashoffset="0" stroke-linecap="round" stroke-miterlimit="4" stroke-opacity="1" stroke-width="2.5" opacity=".6"/><rect id="rect4927" width="95" height="10" x="270" y="792.362" fill="#00f" fill-opacity=".502" stroke="#000" stroke-dasharray="none" stroke-dashoffset="0" stroke-linecap="round" stroke-miterlimit="4" stroke-opacity="1" stroke-width="2.5" opacity=".6"/><text id="text4929" x="180" y="832.362" fill="#000" fill-opacity="1" stroke="none" font-family="ubuntu" font-size="20" font-stretch="normal" font-style="normal" font-variant="normal" font-weight="normal" letter-spacing="0" word-spacing="0" xml:space="preserve" style="line-height:125%;-inkscape-font-specification:ubuntu"><tspan id="tspan4931" x="180" y="832.362" font-size="15">shuffle</tspan></text><text id="text4933" x="321.309" y="827.502" fill="#000" fill-opacity="1" stroke="none" font-family="ubuntu" font-size="20" font-stretch="normal" font-style="normal" font-variant="normal" font-weight="normal" letter-spacing="0" word-spacing="0" xml:space="preserve" style="line-height:125%;-inkscape-font-specification:ubuntu"><tspan style="text-align:center" id="tspan4935" x="321.309" y="827.502" font-size="15" text-anchor="middle">concatenate</tspan><tspan style="text-align:center" id="tspan4937" x="321.309" y="846.252" font-size="15" text-anchor="middle">subblocks</tspan></text><path id="path4939" fill="none" stroke="#000" stroke-linecap="butt" stroke-linejoin="miter" stroke-opacity="1" stroke-width="1" marker-end="url(#Arrow1Mend-8)" d="m 180,842.36218 c 50,0 50,0 50,0"/><text id="text5129" x="80" y="472.362" fill="#000" fill-opacity="1" stroke="none" font-family="ubuntu" font-size="20" font-stretch="normal" font-style="normal" font-variant="normal" font-weight="normal" letter-spacing="0" word-spacing="0" xml:space="preserve" style="line-height:125%;-inkscape-font-specification:ubuntu"><tspan id="tspan5131" x="80" y="472.362" font-size="15">old blocks</tspan></text><text id="text5133" x="280" y="472.362" fill="#000" fill-opacity="1" stroke="none" font-family="ubuntu" font-size="20" font-stretch="normal" font-style="normal" font-variant="normal" font-weight="normal" letter-spacing="0" word-spacing="0" xml:space="preserve" style="line-height:125%;-inkscape-font-specification:ubuntu"><tspan id="tspan5135" x="280" y="472.362" font-size="15">new blocks</tspan></text></g></svg>