<svg xmlns="http://www.w3.org/2000/svg" xmlns:svg="http://www.w3.org/2000/svg" id="svg3063" width="233.327" height="365.588" version="1.1"><defs id="defs3065"><marker id="Arrow1Mend" orient="auto" overflow="visible" refX="0" refY="0"><path id="path4039" fill-rule="evenodd" stroke="#000" stroke-width="1pt" d="M 0,0 5,-5 -12.5,0 5,5 0,0 z" transform="matrix(-0.4,0,0,-0.4,-4,0)"/></marker><marker id="Arrow1Mend-0" orient="auto" overflow="visible" refX="0" refY="0"><path id="path4039-9" fill-rule="evenodd" stroke="#000" stroke-width="1pt" d="M 0,0 5,-5 -12.5,0 5,5 0,0 z" transform="matrix(-0.4,0,0,-0.4,-4,0)"/></marker><marker id="Arrow1Mend-3" orient="auto" overflow="visible" refX="0" refY="0"><path id="path4039-8" fill-rule="evenodd" stroke="#000" stroke-width="1pt" d="M 0,0 5,-5 -12.5,0 5,5 0,0 z" transform="matrix(-0.4,0,0,-0.4,-4,0)"/></marker><marker id="Arrow1Mend-8" orient="auto" overflow="visible" refX="0" refY="0"><path id="path4039-5" fill-rule="evenodd" stroke="#000" stroke-width="1pt" d="M 0,0 5,-5 -12.5,0 5,5 0,0 z" transform="matrix(-0.4,0,0,-0.4,-4,0)"/></marker><marker id="Arrow1Mend-8-4" orient="auto" overflow="visible" refX="0" refY="0"><path id="path4039-5-9" fill-rule="evenodd" stroke="#000" stroke-width="1pt" d="M 0,0 5,-5 -12.5,0 5,5 0,0 z" transform="matrix(-0.4,0,0,-0.4,-4,0)"/></marker><marker id="Arrow1Mend-8-9" orient="auto" overflow="visible" refX="0" refY="0"><path id="path4039-5-2" fill-rule="evenodd" stroke="#000" stroke-width="1pt" d="M 0,0 5,-5 -12.5,0 5,5 0,0 z" transform="matrix(-0.4,0,0,-0.4,-4,0)"/></marker></defs><metadata id="metadata3068"/><g id="layer1" transform="translate(-69,-438.05018)"><rect id="rect3103" width="80" height="80" x="70" y="482.362" fill="#00f" fill-opacity=".502" stroke="#000" stroke-dasharray="none" stroke-dashoffset="0" stroke-linecap="round" stroke-miterlimit="4" stroke-opacity="1" stroke-width="2" opacity=".6"/><rect id="rect3109" width="80" height="40" x="70" y="582.362" fill="#00f" fill-opacity=".502" stroke="#000" stroke-dasharray="none" stroke-dashoffset="0" stroke-linecap="round" stroke-miterlimit="4" stroke-opacity="1" stroke-width="2" opacity=".6"/><rect id="rect3111" width="80" height="80" x="70" y="642.362" fill="#00f" fill-opacity=".502" stroke="#000" stroke-dasharray="none" stroke-dashoffset="0" stroke-linecap="round" stroke-miterlimit="4" stroke-opacity="1" stroke-width="2" opacity=".6"/><rect id="rect3113" width="80" height="60" x="70" y="742.362" fill="#00f" fill-opacity=".502" stroke="#000" stroke-dasharray="none" stroke-dashoffset="0" stroke-linecap="round" stroke-miterlimit="4" stroke-opacity="1" stroke-width="2" opacity=".6"/><path id="path3115" fill="none" stroke="#000" stroke-dasharray="none" stroke-linecap="butt" stroke-linejoin="miter" stroke-miterlimit="4" stroke-opacity="1" stroke-width="2.5" d="m 130,482.36218 c 0,80 0,80 0,80"/><path id="path3885" fill="none" stroke="#000" stroke-dasharray="none" stroke-linecap="butt" stroke-linejoin="miter" stroke-miterlimit="4" stroke-opacity="1" stroke-width="2.5" d="m 130,582.36218 c 0,40 0,40 0,40"/><path id="path3887" fill="none" stroke="#000" stroke-dasharray="none" stroke-linecap="butt" stroke-linejoin="miter" stroke-miterlimit="4" stroke-opacity="1" stroke-width="2.5" d="m 130,642.36218 c 0,80 0,80 0,80"/><path id="path3889" fill="none" stroke="#000" stroke-dasharray="none" stroke-linecap="butt" stroke-linejoin="miter" stroke-miterlimit="4" stroke-opacity="1" stroke-width="2.5" d="m 130,742.36218 c 0,60 0,60 0,60"/><path id="path3891" fill="none" stroke="#000" stroke-dasharray="none" stroke-linecap="butt" stroke-linejoin="miter" stroke-miterlimit="4" stroke-opacity="1" stroke-width="2.5" d="m 198.5863,482.36218 c 0,80 0,80 0,80"/><path id="path3893" fill="none" stroke="#000" stroke-dasharray="none" stroke-linecap="butt" stroke-linejoin="miter" stroke-miterlimit="4" stroke-opacity="1" stroke-width="2.5" d="m 198.5863,582.36218 c 0,40 0,40 0,40"/><path id="path3895" fill="none" stroke="#000" stroke-dasharray="none" stroke-linecap="butt" stroke-linejoin="miter" stroke-miterlimit="4" stroke-opacity="1" stroke-width="2.5" d="m 198.5863,642.36218 c 0,80 0,80 0,80"/><path id="path3897" fill="none" stroke="#000" stroke-dasharray="none" stroke-linecap="butt" stroke-linejoin="miter" stroke-miterlimit="4" stroke-opacity="1" stroke-width="2.5" d="m 198.5863,742.36218 c 0,60 0,60 0,60"/><path id="path3899" fill="none" stroke="#000" stroke-dasharray="none" stroke-linecap="butt" stroke-linejoin="miter" stroke-miterlimit="4" stroke-opacity="1" stroke-width="2.5" d="m 218.5863,482.36218 c 0,20 0,20 0,20"/><path id="path3901" fill="none" stroke="#000" stroke-dasharray="none" stroke-linecap="butt" stroke-linejoin="miter" stroke-miterlimit="4" stroke-opacity="1" stroke-width="2.5" d="m 218.5863,512.36218 c 0,20 0,20 0,20"/><path id="path3903" fill="none" stroke="#000" stroke-dasharray="none" stroke-linecap="butt" stroke-linejoin="miter" stroke-miterlimit="4" stroke-opacity="1" stroke-width="2.5" d="m 218.5863,542.36218 c 0,20 0,20 0,20"/><path id="path3905" fill="none" stroke="#000" stroke-dasharray="none" stroke-linecap="butt" stroke-linejoin="miter" stroke-miterlimit="4" stroke-opacity="1" stroke-width="2.5" d="m 218.5863,582.36218 c 0,20 0,20 0,20"/><path id="path3907" fill="none" stroke="#000" stroke-dasharray="none" stroke-linecap="butt" stroke-linejoin="miter" stroke-miterlimit="4" stroke-opacity="1" stroke-width="2.5" d="m 218.5863,612.36218 c 0,10 0,10 0,10"/><path id="path3909" fill="none" stroke="#000" stroke-dasharray="none" stroke-linecap="butt" stroke-linejoin="miter" stroke-miterlimit="4" stroke-opacity="1" stroke-width="2.5" d="m 218.5863,642.36218 c 0,20 0,20 0,20"/><path id="path3911" fill="none" stroke="#000" stroke-dasharray="none" stroke-linecap="butt" stroke-linejoin="miter" stroke-miterlimit="4" stroke-opacity="1" stroke-width="2.5" d="m 218.5863,672.36218 c 0,20 0,20 0,20"/><path id="path3913" fill="none" stroke="#000" stroke-dasharray="none" stroke-linecap="butt" stroke-linejoin="miter" stroke-miterlimit="4" stroke-opacity="1" stroke-width="2.5" d="m 218.5863,702.36218 c 0,20 0,20 0,20"/><path id="path3915" fill="none" stroke="#000" stroke-dasharray="none" stroke-linecap="butt" stroke-linejoin="miter" stroke-miterlimit="4" stroke-opacity="1" stroke-width="2.5" d="m 218.5863,742.36218 c 0,20 0,20 0,20"/><path id="path3917" fill="none" stroke="#000" stroke-dasharray="none" stroke-linecap="butt" stroke-linejoin="miter" stroke-miterlimit="4" stroke-opacity="1" stroke-width="2.5" d="m 218.5863,772.36218 c 0,20 0,20 0,20"/><path id="path3919" fill="none" stroke="#000" stroke-dasharray="none" stroke-linecap="butt" stroke-linejoin="miter" stroke-miterlimit="4" stroke-opacity="1" stroke-width="2.5" d="m 295.66244,482.36218 c 0,320 0,320 0,320"/><path id="path3921" fill="none" stroke="#000" stroke-dasharray="none" stroke-linecap="butt" stroke-linejoin="miter" stroke-miterlimit="4" stroke-opacity="1" stroke-width="2.5" d="m 218.5863,792.36218 c 0,10 0,10 0,10"/><path id="path3899-9" fill="none" stroke="#000" stroke-dasharray="none" stroke-linecap="butt" stroke-linejoin="miter" stroke-miterlimit="4" stroke-opacity="1" stroke-width="2.5" d="m 222.35017,482.38793 c 0,20 0,20 0,20"/><path id="path3901-6" fill="none" stroke="#000" stroke-dasharray="none" stroke-linecap="butt" stroke-linejoin="miter" stroke-miterlimit="4" stroke-opacity="1" stroke-width="2.5" d="m 222.35017,512.38793 c 0,20 0,20 0,20"/><path id="path3903-7" fill="none" stroke="#000" stroke-dasharray="none" stroke-linecap="butt" stroke-linejoin="miter" stroke-miterlimit="4" stroke-opacity="1" stroke-width="2.5" d="m 222.35017,542.38793 c 0,20 0,20 0,20"/><path id="path3905-6" fill="none" stroke="#000" stroke-dasharray="none" stroke-linecap="butt" stroke-linejoin="miter" stroke-miterlimit="4" stroke-opacity="1" stroke-width="2.5" d="m 222.35017,582.38793 c 0,20 0,20 0,20"/><path id="path3907-7" fill="none" stroke="#000" stroke-dasharray="none" stroke-linecap="butt" stroke-linejoin="miter" stroke-miterlimit="4" stroke-opacity="1" stroke-width="2.5" d="m 222.35017,612.38793 c 0,10 0,10 0,10"/><path id="path3909-4" fill="none" stroke="#000" stroke-dasharray="none" stroke-linecap="butt" stroke-linejoin="miter" stroke-miterlimit="4" stroke-opacity="1" stroke-width="2.5" d="m 222.35017,642.38793 c 0,20 0,20 0,20"/><path id="path3911-5" fill="none" stroke="#000" stroke-dasharray="none" stroke-linecap="butt" stroke-linejoin="miter" stroke-miterlimit="4" stroke-opacity="1" stroke-width="2.5" d="m 222.35017,672.38793 c 0,20 0,20 0,20"/><path id="path3913-6" fill="none" stroke="#000" stroke-dasharray="none" stroke-linecap="butt" stroke-linejoin="miter" stroke-miterlimit="4" stroke-opacity="1" stroke-width="2.5" d="m 222.35017,702.38793 c 0,20 0,20 0,20"/><path id="path3915-2" fill="none" stroke="#000" stroke-dasharray="none" stroke-linecap="butt" stroke-linejoin="miter" stroke-miterlimit="4" stroke-opacity="1" stroke-width="2.5" d="m 222.35017,742.38793 c 0,20 0,20 0,20"/><path id="path3917-3" fill="none" stroke="#000" stroke-dasharray="none" stroke-linecap="butt" stroke-linejoin="miter" stroke-miterlimit="4" stroke-opacity="1" stroke-width="2.5" d="m 222.35017,772.38793 c 0,20 0,20 0,20"/><path id="path3921-0" fill="none" stroke="#000" stroke-dasharray="none" stroke-linecap="butt" stroke-linejoin="miter" stroke-miterlimit="4" stroke-opacity="1" stroke-width="2.5" d="m 222.35017,792.38793 c 0,10 0,10 0,10"/><path id="path3891-7" fill="none" stroke="#000" stroke-dasharray="none" stroke-linecap="butt" stroke-linejoin="miter" stroke-miterlimit="4" stroke-opacity="1" stroke-width="2.5" d="m 202.39912,482.37583 c 0,80 0,80 0,80"/><path id="path3893-0" fill="none" stroke="#000" stroke-dasharray="none" stroke-linecap="butt" stroke-linejoin="miter" stroke-miterlimit="4" stroke-opacity="1" stroke-width="2.5" d="m 202.39912,582.37583 c 0,40 0,40 0,40"/><path id="path3895-4" fill="none" stroke="#000" stroke-dasharray="none" stroke-linecap="butt" stroke-linejoin="miter" stroke-miterlimit="4" stroke-opacity="1" stroke-width="2.5" d="m 202.39912,642.37583 c 0,80 0,80 0,80"/><path id="path3897-0" fill="none" stroke="#000" stroke-dasharray="none" stroke-linecap="butt" stroke-linejoin="miter" stroke-miterlimit="4" stroke-opacity="1" stroke-width="2.5" d="m 202.39912,742.37583 c 0,60 0,60 0,60"/><path id="path3919-4" fill="none" stroke="#000" stroke-dasharray="none" stroke-linecap="butt" stroke-linejoin="miter" stroke-miterlimit="4" stroke-opacity="1" stroke-width="2.5" d="m 299.59101,482.36218 c 0,320 0,320 0,320"/><text id="text4020" x="160" y="522.362" fill="#000" fill-opacity="1" stroke="none" font-family="ubuntu" font-size="20" font-stretch="normal" font-style="normal" font-variant="normal" font-weight="normal" letter-spacing="0" word-spacing="0" xml:space="preserve" style="line-height:125%;-inkscape-font-specification:ubuntu"><tspan id="tspan4022" x="160" y="522.362" font-size="15">sort</tspan></text><path id="path4024" fill="none" stroke="#000" stroke-linecap="butt" stroke-linejoin="miter" stroke-opacity="1" stroke-width="1" marker-end="url(#Arrow1Mend)" d="m 160,527.36218 c 30,0 30,0 30,0"/><text id="text4020-3" x="160" y="602.362" fill="#000" fill-opacity="1" stroke="none" font-family="ubuntu" font-size="20" font-stretch="normal" font-style="normal" font-variant="normal" font-weight="normal" letter-spacing="0" word-spacing="0" xml:space="preserve" style="line-height:125%;-inkscape-font-specification:ubuntu"><tspan id="tspan4022-1" x="160" y="602.362" font-size="15">sort</tspan></text><path id="path4024-7" fill="none" stroke="#000" stroke-linecap="butt" stroke-linejoin="miter" stroke-opacity="1" stroke-width="1" marker-end="url(#Arrow1Mend)" d="m 160,607.36218 c 30,0 30,0 30,0"/><text id="text4020-33" x="160" y="682.362" fill="#000" fill-opacity="1" stroke="none" font-family="ubuntu" font-size="20" font-stretch="normal" font-style="normal" font-variant="normal" font-weight="normal" letter-spacing="0" word-spacing="0" xml:space="preserve" style="line-height:125%;-inkscape-font-specification:ubuntu"><tspan id="tspan4022-6" x="160" y="682.362" font-size="15">sort</tspan></text><path id="path4024-71" fill="none" stroke="#000" stroke-linecap="butt" stroke-linejoin="miter" stroke-opacity="1" stroke-width="1" marker-end="url(#Arrow1Mend)" d="m 160,687.36218 c 30,0 30,0 30,0"/><text id="text4020-7" x="160" y="772.362" fill="#000" fill-opacity="1" stroke="none" font-family="ubuntu" font-size="20" font-stretch="normal" font-style="normal" font-variant="normal" font-weight="normal" letter-spacing="0" word-spacing="0" xml:space="preserve" style="line-height:125%;-inkscape-font-specification:ubuntu"><tspan id="tspan4022-7" x="160" y="772.362" font-size="15">sort</tspan></text><path id="path4024-1" fill="none" stroke="#000" stroke-linecap="butt" stroke-linejoin="miter" stroke-opacity="1" stroke-width="1" marker-end="url(#Arrow1Mend)" d="m 160.5,778.36218 c 30,0 30,0 30,0"/><text id="text4020-6" x="240" y="632.362" fill="#000" fill-opacity="1" stroke="none" font-family="ubuntu" font-size="20" font-stretch="normal" font-style="normal" font-variant="normal" font-weight="normal" letter-spacing="0" word-spacing="0" xml:space="preserve" style="line-height:125%;-inkscape-font-specification:ubuntu"><tspan id="tspan4022-3" x="240" y="632.362" font-size="15">merge</tspan></text><path id="path4553" fill="none" stroke="#000" stroke-linecap="butt" stroke-linejoin="miter" stroke-opacity="1" stroke-width="1" marker-end="url(#Arrow1Mend-8)" d="m 240,637.36218 c 45,0 45,0 45,0"/><text id="text3049" x="85" y="447.362" fill="#000" fill-opacity="1" stroke="none" font-family="ubuntu" font-size="20" font-stretch="normal" font-style="normal" font-variant="normal" font-weight="normal" letter-spacing="0" word-spacing="0" xml:space="preserve" style="line-height:125%;-inkscape-font-specification:ubuntu"><tspan id="tspan3051" x="85" y="447.362" font-size="12">new index</tspan></text><path id="path3053" fill="none" stroke="#000" stroke-linecap="butt" stroke-linejoin="miter" stroke-opacity="1" stroke-width="1" marker-end="url(#Arrow1Mend-8)" d="m 61,-28.749993 c 0,24.9999998 0,24.9999998 0,24.9999998" transform="translate(69,481.11218)"/><text id="text3049-0" x="155" y="447.362" fill="#000" fill-opacity="1" stroke="none" font-family="ubuntu" font-size="20" font-stretch="normal" font-style="normal" font-variant="normal" font-weight="normal" letter-spacing="0" word-spacing="0" xml:space="preserve" style="line-height:125%;-inkscape-font-specification:ubuntu"><tspan id="tspan3051-1" x="155" y="447.362" font-size="12">index+location</tspan></text><path id="path3053-7" fill="none" stroke="#000" stroke-linecap="butt" stroke-linejoin="miter" stroke-opacity="1" stroke-width="1" marker-end="url(#Arrow1Mend-8)" d="m 200.3033,452.31194 c 0,25 0,25 0,25"/><text id="text4080" x="250" y="447.362" fill="#000" fill-opacity="1" stroke="none" font-family="ubuntu" font-size="20" font-stretch="normal" font-style="normal" font-variant="normal" font-weight="normal" letter-spacing="0" word-spacing="0" xml:space="preserve" style="line-height:125%;-inkscape-font-specification:ubuntu"><tspan id="tspan4082" x="250" y="447.362" font-size="12">full result</tspan></text><path id="path3053-7-5" fill="none" stroke="#000" stroke-linecap="butt" stroke-linejoin="miter" stroke-opacity="1" stroke-width="1" marker-end="url(#Arrow1Mend-8)" d="m 295.65685,452.26169 c 0,25 0,25 0,25"/></g></svg>