<svg xmlns="http://www.w3.org/2000/svg" xmlns:svg="http://www.w3.org/2000/svg" id="svg5450" width="241.188" height="103.75" version="1.1"><defs id="defs5452"><marker id="Arrow1Mend" orient="auto" overflow="visible" refX="0" refY="0"><path id="path4313" fill-rule="evenodd" stroke="#000" stroke-width="1pt" d="M 0,0 5,-5 -12.5,0 5,5 0,0 z" transform="matrix(-0.4,0,0,-0.4,-4,0)"/></marker><marker id="marker5440" orient="auto" overflow="visible" refX="0" refY="0"><path id="path5442" fill-rule="evenodd" stroke="#000" stroke-width="1pt" d="M 0,0 5,-5 -12.5,0 5,5 0,0 z" transform="matrix(-0.4,0,0,-0.4,-4,0)"/></marker></defs><metadata id="metadata5455"/><g id="layer1" transform="translate(-254.40625,-480.5)"><rect id="rect2987-2-2-9-9-7-0" width="70" height="110" x="-565.935" y="384.596" fill="navy" fill-opacity=".502" stroke="#000" stroke-dasharray="none" stroke-dashoffset="0" stroke-linecap="round" stroke-miterlimit="4" stroke-opacity="1" stroke-width="2" opacity=".6" transform="matrix(0,-1,1,0,0,0)"/><rect id="rect3042-7-3" width="5" height="70" x="377.59" y="495.816" fill="#6ce0ff" fill-opacity=".502" stroke="#000" stroke-dasharray="none" stroke-dashoffset="0" stroke-linecap="round" stroke-miterlimit="4" stroke-opacity="1" stroke-width="2" opacity=".6"/><rect id="rect2987-2-2-9-9-7-5-7" width="70" height="110" x="-565.835" y="255.404" fill="navy" fill-opacity=".502" stroke="#000" stroke-dasharray="none" stroke-dashoffset="0" stroke-linecap="round" stroke-miterlimit="4" stroke-opacity="1" stroke-width="2" opacity=".6" transform="matrix(0,-1,1,0,0,0)"/><rect id="rect3042-78-2" width="5" height="70" x="367.419" y="495.666" fill="#6ce0ff" fill-opacity=".502" stroke="#000" stroke-dasharray="none" stroke-dashoffset="0" stroke-linecap="round" stroke-miterlimit="4" stroke-opacity="1" stroke-width="2" opacity=".6"/><path id="path4298" fill="none" stroke="#000" stroke-linecap="butt" stroke-linejoin="miter" stroke-opacity="1" stroke-width="1" marker-end="url(#Arrow1Mend)" d="m 389.44034,495.98718 c 0,-10 -5,-15 -10,-15 -5,0 -10,5 -10,15"/><path id="path4298-1" fill="none" stroke="#000" stroke-linecap="butt" stroke-linejoin="miter" stroke-opacity="1" stroke-width="1.016" marker-end="url(#Arrow1Mend)" d="m 361.44829,567.79197 c 0,10.62484 4.8568,15.93726 9.7136,15.93726 4.8568,0 9.71359,-5.31242 9.71359,-15.93726"/></g></svg>